<svg width="23" height="40" viewBox="0 0 23 40" fill="none" xmlns="http://www.w3.org/2000/svg">
<path d="M21.481 35.9817V39.2092H9.79663V19.4668C9.79663 16.4432 10.8616 13.5816 12.7874 11.3862C13.8308 10.1921 15.0577 9.17022 16.4567 8.31958C17.1885 9.11594 17.8875 9.97687 18.4789 10.8808C17.21 11.6014 16.1123 12.4839 15.2083 13.5273C13.799 15.12 13.0242 17.2283 13.0242 19.4668V35.9817H21.481Z" fill="#0DE9C3"/>
<path d="M22.9438 39.2107H19.7162V14.4636C19.7162 13.5026 19.4776 12.5733 19.0266 11.777C17.0034 8.20317 13.1938 5.16091 11.4728 3.90039C9.75097 5.16372 5.93481 8.21347 3.91723 11.777C3.46618 12.5733 3.22755 13.5026 3.22755 14.4636V39.2107H0V14.4636C0 12.9458 0.383672 11.4672 1.10798 10.1861C4.14463 4.82308 10.3274 0.7477 10.5885 0.57645L11.471 0L12.3534 0.57645C12.6154 0.746764 18.7973 4.82308 21.834 10.1861C22.5592 11.4663 22.9419 12.9458 22.9419 14.4636V39.2107H22.9438Z" fill="#2A3A4C"/>
</svg>
