<svg width="90" height="40" viewBox="0 0 90 40" fill="none" xmlns="http://www.w3.org/2000/svg">
<path d="M1.60783 15.6238C1.67989 15.6781 1.76037 15.7193 1.85115 15.7483C1.94099 15.7773 2.03458 15.7914 2.13191 15.7914C2.2255 15.7914 2.31721 15.7773 2.40705 15.7483C2.50064 15.7193 2.583 15.6781 2.65506 15.6238C2.72712 15.5658 2.78608 15.4966 2.83287 15.4133C2.87592 15.3309 2.89745 15.2355 2.89745 15.1269C2.89745 15.0155 2.87592 14.9182 2.83287 14.8359C2.78608 14.7535 2.72712 14.6852 2.65506 14.6309C2.583 14.5766 2.50064 14.5354 2.40705 14.5064C2.31721 14.4774 2.2255 14.4634 2.13191 14.4634C2.03458 14.4634 1.94099 14.4774 1.85115 14.5064C1.76131 14.5354 1.67989 14.5766 1.60783 14.6309C1.53951 14.6852 1.48149 14.7535 1.43469 14.8359C1.39164 14.9182 1.37012 15.0155 1.37012 15.1269C1.37012 15.2345 1.39164 15.33 1.43469 15.4133C1.48149 15.4956 1.53951 15.5658 1.60783 15.6238Z" fill="#2A3A4C"/>
<path d="M3.45353 15.6238C3.52185 15.6781 3.6014 15.7193 3.69124 15.7483C3.78108 15.7773 3.87467 15.7914 3.972 15.7914C4.06559 15.7914 4.15917 15.7773 4.25276 15.7483C4.3426 15.7193 4.42589 15.6781 4.50076 15.6238C4.57282 15.5658 4.62991 15.4966 4.67296 15.4133C4.71601 15.3309 4.73754 15.2355 4.73754 15.1269C4.73754 15.0155 4.71601 14.9182 4.67296 14.8359C4.62991 14.7535 4.57189 14.6852 4.50076 14.6309C4.42496 14.5766 4.3426 14.5354 4.25276 14.5064C4.15917 14.4774 4.06559 14.4634 3.972 14.4634C3.87467 14.4634 3.78108 14.4774 3.69124 14.5064C3.6014 14.5354 3.52185 14.5766 3.45353 14.6309C3.38147 14.6852 3.32438 14.7535 3.2804 14.8359C3.23735 14.9182 3.21582 15.0155 3.21582 15.1269C3.21582 15.2345 3.23735 15.33 3.2804 15.4133C3.32438 15.4956 3.38147 15.5658 3.45353 15.6238Z" fill="#2A3A4C"/>
<path d="M19.0911 17.2122C18.8244 16.9642 18.5025 16.777 18.1245 16.6507C17.7501 16.5216 17.3384 16.4561 16.8883 16.4561C16.4382 16.4561 16.0264 16.5206 15.6521 16.6507C15.2778 16.7836 14.954 16.9726 14.6807 17.2178C14.4112 17.4658 14.2025 17.768 14.0547 18.1246C13.904 18.4811 13.8282 18.8835 13.8282 19.3336V19.7388C13.8282 20.1169 13.7365 20.4032 13.5531 20.5969C13.3697 20.7953 13.1161 20.8936 12.7923 20.8936L10.2067 20.888C9.98025 20.888 9.77344 20.8505 9.58628 20.7747C9.40286 20.6989 9.24658 20.5932 9.11651 20.4566C8.98737 20.32 8.8863 20.1562 8.81425 19.9653C8.74593 19.7744 8.71131 19.5638 8.71131 19.3336C8.71131 19.0959 8.745 18.8826 8.81425 18.6917C8.8863 18.5008 8.98737 18.3389 9.11651 18.206C9.24565 18.0731 9.40286 17.9683 9.58628 17.8925C9.77344 17.8204 9.98025 17.7849 10.2067 17.7849V18.7993H11.7554V16.7798C11.6544 16.733 11.5505 16.69 11.442 16.6507C11.0676 16.5216 10.6559 16.4561 10.2058 16.4561C9.75285 16.4561 9.33829 16.5188 8.96397 16.6451C8.58966 16.7742 8.26961 16.9633 8.00291 17.2122C7.7334 17.4564 7.52472 17.7577 7.37687 18.1133C7.2262 18.4699 7.1504 18.876 7.1504 19.3327C7.1504 19.7931 7.2262 20.2039 7.37687 20.5633C7.42366 20.6784 7.477 20.786 7.53876 20.887H7.1504V20.8927C6.82288 20.8927 6.5674 20.7935 6.38399 20.596C6.20057 20.3986 6.10886 20.1103 6.10886 19.7323V16.4561H3.05443C2.60432 16.4561 2.19444 16.5206 1.82386 16.6507C1.4458 16.7836 1.12202 16.9726 0.852509 17.2178C0.583 17.4658 0.374318 17.768 0.226462 18.1246C0.0757995 18.4811 0 18.8835 0 19.3336C0 19.794 0.0757995 20.2048 0.226462 20.5642C0.374318 20.9245 0.583 21.2267 0.852509 21.471C1.12295 21.7124 1.4458 21.8977 1.82386 22.0268C2.19818 22.1569 2.60993 22.2215 3.06005 22.2215C3.51016 22.2215 3.92379 22.1569 4.30185 22.0268C4.65838 21.9042 4.96626 21.7302 5.22454 21.5037L5.23015 21.5093C5.44913 21.733 5.72332 21.9071 6.05085 22.0334C6.36434 22.156 6.72555 22.2187 7.13543 22.2224H7.15134H12.7914C13.2087 22.2187 13.5756 22.156 13.8928 22.0334C14.2166 21.9071 14.4898 21.733 14.7135 21.5093L14.7191 21.5037C14.9821 21.7302 15.2928 21.9052 15.653 22.0268C16.0273 22.1569 16.4391 22.2215 16.8892 22.2215C17.3393 22.2215 17.7511 22.1569 18.1254 22.0268C18.5035 21.8977 18.8254 21.7124 19.0921 21.471C19.3588 21.2267 19.5675 20.9245 19.7181 20.5642C19.866 20.2039 19.939 19.794 19.939 19.3336C19.939 18.8807 19.865 18.4736 19.7181 18.1143C19.5656 17.7568 19.3569 17.4564 19.0911 17.2122ZM4.55545 19.3327C4.55545 19.5629 4.51989 19.7734 4.44783 19.9643C4.37577 20.159 4.27658 20.3228 4.15118 20.4556C4.02204 20.5923 3.86296 20.6989 3.6758 20.7738C3.49238 20.8534 3.28745 20.8927 3.06098 20.8927C2.84107 20.8927 2.63988 20.8534 2.45646 20.7738C2.27304 20.698 2.1149 20.5923 1.98108 20.4556C1.84819 20.3228 1.74338 20.159 1.66852 19.9643C1.59646 19.7734 1.56091 19.5629 1.56091 19.3327C1.56091 19.1062 1.59646 18.8994 1.66852 18.7123C1.74432 18.5251 1.84632 18.3613 1.9764 18.221C2.10647 18.0806 2.26462 17.973 2.45085 17.8972C2.63426 17.8214 2.83639 17.7839 3.05537 17.7839H4.56106L4.55545 19.3327ZM18.2779 19.9643C18.2078 20.1553 18.1076 20.319 17.9785 20.4556C17.8493 20.5923 17.6912 20.6989 17.5059 20.7738C17.3206 20.8496 17.1147 20.887 16.8883 20.887C16.6684 20.887 16.4672 20.8496 16.2838 20.7738C16.1003 20.698 15.9422 20.5923 15.8084 20.4556C15.6755 20.319 15.5716 20.1553 15.4977 19.9643C15.4238 19.7734 15.3873 19.5629 15.3873 19.3327C15.3873 19.1062 15.4238 18.8994 15.4977 18.7123C15.5716 18.5251 15.6736 18.3613 15.8028 18.221C15.9319 18.0806 16.091 17.973 16.2772 17.8972C16.4644 17.8214 16.6674 17.7839 16.8873 17.7839C17.1138 17.7839 17.3197 17.8204 17.505 17.8944C17.6903 17.9683 17.8465 18.0722 17.9747 18.2051C18.102 18.3379 18.2021 18.5008 18.2742 18.6935C18.3462 18.8863 18.3818 19.0997 18.3818 19.3327C18.3837 19.5629 18.3491 19.7734 18.2779 19.9643Z" fill="#2A3A4C"/>
<path d="M24.731 23.1643C24.5766 23.0492 24.3978 22.9912 24.1966 22.9912C23.9954 22.9912 23.8223 23.0474 23.6781 23.1587C23.52 23.2813 23.4404 23.4451 23.4404 23.6501C23.4404 23.855 23.52 24.0207 23.6781 24.147C23.8185 24.2621 23.9917 24.3201 24.1966 24.3201C24.4016 24.3201 24.5784 24.2621 24.7254 24.147C24.8835 24.0244 24.9631 23.8588 24.9631 23.6501C24.9631 23.4414 24.8854 23.2795 24.731 23.1643Z" fill="#2A3A4C"/>
<path d="M27.003 17.2087C26.7363 16.9625 26.4154 16.7754 26.0401 16.6472C25.6639 16.5199 25.2512 16.4553 24.8011 16.4553C24.2219 16.4553 23.7053 16.5629 23.2524 16.7791V18.7976H24.8011V17.7832C25.0276 17.7832 25.2335 17.8197 25.4197 17.8937C25.605 17.9676 25.7622 18.0715 25.8923 18.2043C26.0214 18.3372 26.1215 18.4991 26.1917 18.69C26.2619 18.8809 26.2965 19.0952 26.2965 19.332C26.2965 19.5622 26.2619 19.7727 26.1917 19.9636C26.1215 20.1545 26.0214 20.3183 25.8923 20.4549C25.7631 20.5915 25.605 20.6982 25.4197 20.7731C25.2344 20.8489 25.0285 20.8863 24.8011 20.8863H23.2524C22.9286 20.8863 22.675 20.789 22.4916 20.5953C22.3082 20.3978 22.2165 20.1096 22.2165 19.7315V15.1331H20.6677V19.71C20.6677 20.0703 20.7239 20.4044 20.8352 20.7141C20.9466 21.0201 21.1141 21.284 21.3368 21.5077C21.5558 21.7313 21.8281 21.9054 22.1519 22.0317C22.4719 22.1543 22.8388 22.2151 23.2533 22.2151V22.2208H24.8021C25.2522 22.2208 25.6649 22.1562 26.0411 22.0261C26.4172 21.897 26.7382 21.7108 27.004 21.4675C27.2707 21.2251 27.4775 20.9228 27.6272 20.5635C27.777 20.2032 27.8509 19.7933 27.8509 19.3329C27.8509 18.8762 27.776 18.4692 27.6272 18.1136C27.4775 17.7561 27.2698 17.4548 27.003 17.2087Z" fill="#2A3A4C"/>
<path d="M38.376 23.1643C38.2216 23.0492 38.0428 22.9912 37.8416 22.9912C37.6395 22.9912 37.4673 23.0474 37.3232 23.1587C37.165 23.2813 37.0854 23.4451 37.0854 23.6501C37.0854 23.855 37.165 24.0207 37.3232 24.147C37.4635 24.2621 37.6367 24.3201 37.8416 24.3201C38.0466 24.3201 38.2225 24.2621 38.3704 24.147C38.5286 24.0244 38.6081 23.8588 38.6081 23.6501C38.6081 23.4414 38.5304 23.2795 38.376 23.1643Z" fill="#2A3A4C"/>
<path d="M60.3755 18.1133C60.2239 17.7568 60.0153 17.4564 59.7495 17.2122C59.4828 16.9642 59.1609 16.777 58.7828 16.6507C58.4085 16.5216 57.9968 16.4561 57.5466 16.4561C57.0965 16.4561 56.6848 16.5206 56.3105 16.6507C55.9361 16.7836 55.6123 16.9726 55.3391 17.2178C55.0696 17.4658 54.86 17.768 54.7131 18.1246C54.5624 18.4811 54.4866 18.8835 54.4866 19.3336V19.7388C54.4866 20.1169 54.3949 20.4032 54.2115 20.5969C54.0346 20.7878 53.7904 20.8852 53.4825 20.8917C53.4713 20.8917 53.4619 20.8889 53.4507 20.8889C53.1269 20.8889 52.8733 20.7916 52.6899 20.5979C52.5064 20.4004 52.4147 20.1122 52.4147 19.7341V17.7914H53.052V16.4617H50.8772V19.6677C50.8772 20.0925 50.7799 20.4014 50.5853 20.596C50.3944 20.7907 50.1426 20.887 49.8301 20.887C49.5025 20.887 49.2433 20.7897 49.0534 20.596C48.8625 20.4014 48.767 20.0888 48.767 19.6574V17.7896H49.4361V16.4617H47.2276V19.6677C47.2276 20.0925 47.1303 20.4014 46.9366 20.596C46.7457 20.7907 46.494 20.887 46.1814 20.887C45.8576 20.887 45.5984 20.7897 45.4047 20.596C45.2138 20.4014 45.1184 20.0888 45.1184 19.6574V17.7896H45.7874V16.4617H43.5799V19.7323C43.5799 20.1103 43.4882 20.3986 43.3048 20.596C43.1214 20.7907 42.8659 20.887 42.5384 20.887C42.2108 20.887 41.9554 20.7897 41.772 20.596C41.5885 20.3986 41.4968 20.1103 41.4968 19.7323V19.3327C41.4968 18.876 41.4229 18.4689 41.275 18.1133C41.1244 17.7568 40.9148 17.4545 40.649 17.2066C40.3823 16.9623 40.0623 16.7752 39.6879 16.6451C39.3099 16.5188 38.8963 16.4561 38.4461 16.4561C37.996 16.4561 37.5843 16.5206 37.21 16.6507C37.1023 16.69 36.9975 16.734 36.8974 16.7798V18.7983H38.4461V17.7839C38.6726 17.7839 38.8785 17.8195 39.0619 17.8916C39.249 17.9674 39.4072 18.0712 39.5373 18.2051C39.6664 18.3379 39.7656 18.4998 39.8339 18.6907C39.906 18.8816 39.9415 19.0959 39.9415 19.3327C39.9415 19.5629 39.906 19.7734 39.8339 19.9643C39.7656 20.1553 39.6664 20.319 39.5373 20.4556C39.4072 20.5923 39.249 20.6989 39.0619 20.7738C38.8785 20.8496 38.6735 20.887 38.4461 20.887H36.8965C36.5727 20.887 36.3191 20.7897 36.1357 20.596C35.9522 20.3986 35.8605 20.1103 35.8605 19.7323V19.3383C35.8605 18.8779 35.7847 18.4671 35.6341 18.1077C35.4862 17.7484 35.2775 17.448 35.008 17.2066C34.7413 16.9623 34.4213 16.7752 34.047 16.6451C33.6727 16.5188 33.259 16.4561 32.8052 16.4561H31.7852V17.7839H32.8108C33.0335 17.7839 33.2384 17.8214 33.4256 17.8972C33.6128 17.973 33.769 18.0787 33.8954 18.2153C34.0245 18.352 34.1256 18.5157 34.1976 18.7066C34.2659 18.8975 34.3006 19.1081 34.3006 19.3383C34.3006 19.576 34.2659 19.7903 34.1976 19.9803C34.1256 20.1712 34.0245 20.3331 33.8954 20.4659C33.77 20.6026 33.6128 20.7074 33.4256 20.7794C33.2384 20.8515 33.0335 20.887 32.8108 20.887H30.7595V22.2205H32.8052C33.259 22.2205 33.6727 22.156 34.047 22.0259C34.4035 21.9033 34.7114 21.7274 34.9697 21.4972L34.9809 21.5075C35.2008 21.7311 35.4722 21.9052 35.796 22.0315C36.1095 22.1541 36.4707 22.2168 36.8815 22.2205H36.8974H38.4461C38.8963 22.2205 39.3099 22.156 39.6879 22.0259C40.0445 21.9033 40.3514 21.7293 40.6106 21.5028L40.6162 21.5084C40.8362 21.7321 41.1094 21.9061 41.4369 22.0325C41.7495 22.155 42.1116 22.2177 42.5215 22.2215H42.5374C42.5739 22.2215 42.6076 22.2168 42.6422 22.2121C43.0156 22.2018 43.3497 22.1429 43.6389 22.0268C43.9056 21.9258 44.1358 21.7929 44.3295 21.6273C44.5456 21.8182 44.7974 21.9623 45.0847 22.0587C45.4047 22.1635 45.7706 22.2149 46.1805 22.2149C46.5838 22.2149 46.945 22.1588 47.2651 22.0474C47.5421 21.9501 47.7835 21.8135 47.9884 21.6375C48.1971 21.821 48.4451 21.9613 48.7333 22.0587C49.0534 22.1635 49.4183 22.2149 49.8291 22.2149C50.2325 22.2149 50.5937 22.1588 50.9137 22.0474C51.1982 21.9464 51.4443 21.8051 51.653 21.6207C51.8514 21.7901 52.0825 21.9248 52.3492 22.0259C52.6693 22.1522 53.0361 22.2149 53.4507 22.2149V22.2205C53.868 22.2168 54.2349 22.1541 54.5521 22.0315C54.8759 21.9052 55.1491 21.7311 55.3728 21.5075L55.3784 21.5019C55.6414 21.7283 55.952 21.9033 56.3123 22.025C56.6866 22.155 57.0984 22.2196 57.5485 22.2196C57.9986 22.2196 58.4104 22.155 58.7847 22.025C59.1628 21.8958 59.4847 21.7105 59.7514 21.4691C60.0171 21.2249 60.2258 20.9226 60.3774 20.5623C60.5253 20.202 60.5992 19.7922 60.5992 19.3318C60.5973 18.8798 60.5234 18.4727 60.3755 18.1133ZM58.9372 19.9643C58.867 20.1553 58.7669 20.319 58.6378 20.4556C58.5086 20.5923 58.3505 20.6989 58.1652 20.7738C57.9799 20.8496 57.774 20.887 57.5476 20.887C57.3277 20.887 57.1265 20.8496 56.9431 20.7738C56.7596 20.698 56.6015 20.5923 56.4677 20.4556C56.3348 20.319 56.2309 20.1553 56.157 19.9643C56.0831 19.7734 56.0466 19.5629 56.0466 19.3327C56.0466 19.1062 56.0831 18.8994 56.157 18.7123C56.2309 18.5251 56.332 18.3613 56.462 18.221C56.5921 18.0806 56.7503 17.973 56.9374 17.8972C57.1246 17.8214 57.3277 17.7839 57.5476 17.7839C57.774 17.7839 57.9799 17.8204 58.1652 17.8944C58.3505 17.9683 58.5068 18.0722 58.635 18.2051C58.7622 18.3379 58.8624 18.5008 58.9344 18.6935C59.0065 18.8863 59.042 19.0997 59.042 19.3327C59.043 19.5629 59.0074 19.7734 58.9372 19.9643Z" fill="#2A3A4C"/>
<path d="M22.9381 30.5189H23.4724V33.4984C23.4724 33.8765 23.3807 34.1629 23.1973 34.3594C23.0139 34.5549 22.7603 34.6532 22.4365 34.6532V35.9811C22.8539 35.9774 23.2226 35.9137 23.5426 35.7893C23.8627 35.6648 24.1341 35.4917 24.3549 35.269C24.5767 35.0453 24.7423 34.7814 24.8546 34.4754C24.966 34.1694 25.0221 33.8353 25.0221 33.4713V29.4446H22.939V30.5189H22.9381Z" fill="#2A3A4C"/>
<path d="M27.2024 26.7844H25.75V33.8759H27.7526V32.5489H27.2024V26.7844Z" fill="#2A3A4C"/>
<path d="M33.7411 28.8703C33.4735 28.6241 33.1515 28.437 32.7782 28.3088C32.4038 28.1815 31.9921 28.1169 31.542 28.1169C31.0881 28.1169 30.6745 28.1815 30.3002 28.3116C29.9259 28.4407 29.604 28.6288 29.3344 28.8759C29.0649 29.122 28.8544 29.4242 28.7056 29.7827C28.5559 30.1411 28.4819 30.5444 28.4819 30.9945C28.4819 31.4549 28.5568 31.8657 28.7056 32.2251C28.8553 32.5854 29.0649 32.8867 29.3344 33.1291C29.604 33.3724 29.9259 33.5576 30.3002 33.6877C30.6745 33.8178 31.0881 33.8824 31.542 33.8824C32.0997 33.8824 32.5976 33.7832 33.0374 33.5857C33.0196 33.902 32.9298 34.1472 32.7679 34.3194C32.5845 34.5168 32.329 34.616 32.0015 34.616V35.9711C32.4188 35.9673 32.7885 35.9037 33.1104 35.7792C33.4323 35.6548 33.7037 35.4816 33.9226 35.2589C34.1426 35.0353 34.3082 34.7704 34.4224 34.4626C34.5356 34.1547 34.5927 33.8215 34.5927 33.4613V30.9945C34.5927 30.5378 34.5178 30.1308 34.369 29.7752C34.2184 29.4177 34.0097 29.1164 33.7411 28.8703ZM32.926 31.6252C32.8558 31.8161 32.7566 31.9799 32.6294 32.1165C32.5021 32.2532 32.344 32.3598 32.1568 32.4347C31.9696 32.5105 31.7628 32.5479 31.5364 32.5479C31.3165 32.5479 31.1153 32.5105 30.9318 32.4347C30.7484 32.3589 30.5903 32.2532 30.4565 32.1165C30.3236 31.9799 30.2197 31.8161 30.1458 31.6252C30.0718 31.4343 30.0354 31.2238 30.0354 30.9936C30.0354 30.7671 30.0718 30.5594 30.1458 30.3703C30.2197 30.1813 30.3217 30.0175 30.4537 29.879C30.5847 29.7405 30.7428 29.6339 30.9281 29.5581C31.1134 29.4823 31.3174 29.4448 31.541 29.4448C31.7638 29.4448 31.9696 29.4813 32.1568 29.5553C32.344 29.6292 32.5012 29.7331 32.6294 29.8659C32.7566 29.9988 32.8558 30.1607 32.926 30.3516C32.9962 30.5425 33.0318 30.7568 33.0318 30.9936C33.0318 31.2247 32.9962 31.4353 32.926 31.6252Z" fill="#2A3A4C"/>
<path d="M37.0587 28.7809C37.2636 28.7809 37.4396 28.7247 37.5874 28.6134C37.7456 28.4879 37.8251 28.3204 37.8251 28.1117C37.8251 27.903 37.7475 27.7411 37.593 27.626C37.4386 27.5109 37.2599 27.4529 37.0587 27.4529C36.8565 27.4529 36.6843 27.509 36.5402 27.6204C36.382 27.743 36.3025 27.9068 36.3025 28.1117C36.3025 28.3167 36.382 28.4842 36.5402 28.6134C36.6806 28.7247 36.8528 28.7809 37.0587 28.7809Z" fill="#2A3A4C"/>
<path d="M39.9831 31.3932C39.9831 31.7712 39.8914 32.0595 39.708 32.2569C39.5246 32.4553 39.2691 32.5536 38.9416 32.5536C38.6178 32.5536 38.3642 32.4544 38.1808 32.2569C37.9974 32.0595 37.9057 31.7712 37.9057 31.3932V29.4448H35.8217V30.5191H36.356V33.4987C36.356 33.8768 36.2643 34.1631 36.0809 34.3568C35.8975 34.5543 35.6439 34.6535 35.3201 34.6535V35.9814C35.7374 35.9776 36.1043 35.9149 36.4215 35.7923C36.7453 35.666 37.0167 35.4919 37.2366 35.2692C37.4593 35.0456 37.6268 34.7817 37.7382 34.4757C37.8243 34.238 37.8767 33.9844 37.8944 33.7149C38.1967 33.8225 38.5401 33.8786 38.9257 33.8824H38.9416C39.359 33.8786 39.7286 33.815 40.0505 33.6905C40.3724 33.5661 40.6429 33.393 40.8628 33.1693C41.0818 32.9466 41.2483 32.6808 41.3625 32.3729C41.4757 32.0651 41.5328 31.7319 41.5328 31.3716V26.7891H39.9831V31.3932Z" fill="#2A3A4C"/>
<path d="M43.7122 26.7844H42.2607V33.8759H44.2633V32.5489H43.7122V26.7844Z" fill="#2A3A4C"/>
<path d="M51.8792 31.3286C51.8792 31.7534 51.7837 32.0623 51.5928 32.2569C51.4019 32.4515 51.1502 32.5479 50.8367 32.5479H49.7736C49.4498 32.5479 49.1916 32.4506 48.9988 32.2569C48.806 32.0623 48.7106 31.7497 48.7106 31.3183V29.4458H47.1721V31.3183C47.1721 32.1568 47.4023 32.795 47.8627 33.2348C48.3129 33.6625 48.9492 33.8768 49.7736 33.8768H50.8367C51.24 33.8768 51.6003 33.8206 51.9194 33.7093C52.2376 33.5979 52.5108 33.4332 52.7373 33.2151C52.9638 32.9971 53.135 32.7313 53.2501 32.416C53.3652 32.1016 53.4232 31.7385 53.4232 31.3286V29.4448H54.0605V28.1169H51.8801V31.3286H51.8792Z" fill="#2A3A4C"/>
<path d="M50.8326 34.8244C50.6782 34.7074 50.5013 34.6484 50.3038 34.6484C50.0989 34.6484 49.9239 34.7046 49.7807 34.816C49.6225 34.9386 49.543 35.1042 49.543 35.3129C49.543 35.5141 49.6225 35.6798 49.7807 35.8098C49.9211 35.9212 50.0951 35.9774 50.3038 35.9774C50.505 35.9774 50.68 35.9212 50.8279 35.8098C50.9861 35.6835 51.0656 35.5188 51.0656 35.3129C51.0647 35.1042 50.987 34.9414 50.8326 34.8244Z" fill="#2A3A4C"/>
<path d="M58.4221 28.7807L58.4164 31.3232C58.4164 31.7481 58.321 32.0569 58.1301 32.2515C57.9392 32.4462 57.6875 32.5426 57.374 32.5426V32.5482C57.0502 32.5482 56.7966 32.4509 56.6132 32.2572C56.4298 32.0597 56.338 31.7715 56.338 31.3934V26.7949H54.7893V31.3719C54.7893 31.7322 54.8455 32.0662 54.9568 32.376C55.0682 32.682 55.2357 32.9459 55.4584 33.1696C55.6774 33.3932 55.9497 33.5673 56.2735 33.6936C56.5935 33.8162 56.9603 33.877 57.374 33.877C57.4245 33.877 57.4722 33.8714 57.519 33.8611C58.2574 33.8349 58.846 33.6234 59.2746 33.2107C59.7312 32.77 59.9596 32.1411 59.9596 31.3242V30.1095H60.5968V28.7816H58.4221V28.7807Z" fill="#2A3A4C"/>
<path d="M57.9154 34.8262C57.7609 34.7111 57.5822 34.6531 57.381 34.6531C57.1798 34.6531 57.0048 34.7092 56.8578 34.8206C56.7034 34.9432 56.6257 35.107 56.6257 35.3119C56.6257 35.5169 56.7025 35.6825 56.8578 35.8089C57.0019 35.924 57.176 35.982 57.381 35.982C57.5822 35.982 57.7572 35.924 57.9051 35.8089C58.067 35.6825 58.1484 35.5178 58.1484 35.3119C58.1474 35.1032 58.0698 34.9413 57.9154 34.8262Z" fill="#2A3A4C"/>
<path d="M88.5374 35.9817V39.2092H76.853V19.4668C76.853 16.4432 77.918 13.5816 79.8438 11.3862C80.8872 10.1921 82.1141 9.17022 83.5131 8.31958C84.2449 9.11594 84.9439 9.97687 85.5353 10.8808C84.2664 11.6014 83.1687 12.4839 82.2647 13.5273C80.8554 15.12 80.0806 17.2283 80.0806 19.4668V35.9817H88.5374Z" fill="#0DE9C3"/>
<path d="M90.0002 39.2107H86.7726V14.4636C86.7726 13.5026 86.534 12.5733 86.083 11.777C84.0598 8.20317 80.2502 5.16091 78.5292 3.90039C76.8074 5.16372 72.9912 8.21347 70.9736 11.777C70.5226 12.5733 70.2839 13.5026 70.2839 14.4636V39.2107H67.0564V14.4636C67.0564 12.9458 67.4401 11.4672 68.1644 10.1861C71.201 4.82308 77.3838 0.7477 77.6449 0.57645L78.5274 0L79.4098 0.57645C79.6718 0.746764 85.8537 4.82308 88.8903 10.1861C89.6156 11.4663 89.9983 12.9458 89.9983 14.4636V39.2107H90.0002Z" fill="#2A3A4C"/>
</svg>
