<svg width="23" height="40" viewBox="0 0 23 40" fill="none" xmlns="http://www.w3.org/2000/svg">
<path d="M21.4812 35.9814V39.209H9.79688V19.4665C9.79688 16.443 10.8618 13.5813 12.7877 11.3859C13.8311 10.1919 15.0579 9.16997 16.4569 8.31934C17.1887 9.1157 17.8877 9.97663 18.4792 10.8806C17.2102 11.6012 16.1125 12.4836 15.2086 13.527C13.7993 15.1198 13.0244 17.2281 13.0244 19.4665V35.9814H21.4812Z" fill="#0DE9C3"/>
<path d="M22.9438 39.2107H19.7162V14.4636C19.7162 13.5026 19.4776 12.5733 19.0266 11.777C17.0034 8.20317 13.1938 5.16091 11.4728 3.90039C9.75097 5.16372 5.93481 8.21347 3.91723 11.777C3.46618 12.5733 3.22755 13.5026 3.22755 14.4636V39.2107H0V14.4636C0 12.9458 0.383672 11.4672 1.10798 10.1861C4.14463 4.82308 10.3274 0.7477 10.5885 0.57645L11.471 0L12.3534 0.57645C12.6154 0.746764 18.7973 4.82308 21.834 10.1861C22.5592 11.4663 22.9419 12.9458 22.9419 14.4636V39.2107H22.9438Z" fill="#243245"/>
</svg>
