<svg width="59" height="59" viewBox="0 0 59 59" fill="none" xmlns="http://www.w3.org/2000/svg">
<g clip-path="url(#clip0_731_3899)">
<path d="M37.8243 31.3678V34.2664H27.3306V16.5361C27.3306 13.8209 28.2868 11.2508 30.0164 9.27941C30.954 8.20695 32.0554 7.28894 33.3112 6.52539C33.9684 7.24091 34.5966 8.01374 35.1276 8.82532C33.988 9.47261 33.0023 10.2645 32.1902 11.2022C30.9245 12.6321 30.2287 14.526 30.2287 16.5361V31.3678H37.8243Z" fill="#0DE9C3"/>
<path d="M39.138 34.2665H36.2393V12.0422C36.2393 11.1788 36.0254 10.3443 35.6204 9.62933C33.803 6.41959 30.3826 3.6874 28.8369 2.55599C27.2902 3.69068 23.8632 6.42941 22.0517 9.62933C21.6468 10.3448 21.4328 11.1788 21.4328 12.0422V34.2665H18.5342V12.0422C18.5342 10.6794 18.8786 9.35098 19.5297 8.20102C22.257 3.38504 27.8092 -0.275523 28.0439 -0.428888L28.8364 -0.946289L29.6288 -0.428888C29.8641 -0.275523 35.4163 3.38449 38.143 8.20102C38.7941 9.35098 39.1385 10.6789 39.1385 12.0422V34.2665H39.138Z" fill="#2A3A4C"/>
<path d="M0.600345 38.4892C0.572829 38.4085 0.55957 38.3139 0.55957 38.2064C0.55957 38.0985 0.572829 38.0039 0.600345 37.9232C0.653548 37.8425 0.721011 37.775 0.801729 37.7211C0.855938 37.6672 0.923124 37.6268 1.00421 37.5997C1.11235 37.5729 1.20632 37.5593 1.28731 37.5593C1.39482 37.5593 1.48943 37.5729 1.57052 37.5997C1.65123 37.6268 1.73222 37.6672 1.81294 37.7211C1.89403 37.775 1.9476 37.8425 1.97402 37.9232C2.02832 38.0039 2.0551 38.0985 2.0551 38.2064C2.0551 38.3139 2.02832 38.4085 1.97402 38.4892C1.9476 38.5699 1.89403 38.6374 1.81294 38.6913C1.73222 38.7453 1.65123 38.7856 1.57052 38.8127C1.48943 38.8395 1.39482 38.853 1.28731 38.853C1.20632 38.853 1.11235 38.8395 1.00421 38.8127C0.923124 38.7856 0.855938 38.7453 0.801729 38.6913C0.721011 38.6374 0.653548 38.5699 0.600345 38.4892Z" fill="#243245"/>
<path d="M2.41861 38.4892C2.36541 38.4085 2.33789 38.3139 2.33789 38.2064C2.33789 38.0985 2.36541 38.0039 2.41861 37.9232C2.47291 37.8425 2.52648 37.775 2.58077 37.7211C2.6614 37.6672 2.74249 37.6268 2.82321 37.5997C2.90429 37.5729 2.99817 37.5593 3.1064 37.5593C3.1874 37.5593 3.28137 37.5729 3.38878 37.5997C3.46986 37.6268 3.55058 37.6672 3.63167 37.7211C3.68588 37.775 3.73908 37.8425 3.79338 37.9232C3.82016 38.0039 3.83378 38.0985 3.83378 38.2064C3.83378 38.3139 3.82016 38.4085 3.79338 38.4892C3.73908 38.5699 3.68588 38.6374 3.63167 38.6913C3.55058 38.7453 3.46986 38.7856 3.38878 38.8127C3.28137 38.8395 3.1874 38.853 3.1064 38.853C2.99817 38.853 2.90429 38.8395 2.82321 38.8127C2.74249 38.7856 2.6614 38.7453 2.58077 38.6913C2.52648 38.6374 2.47291 38.5699 2.41861 38.4892Z" fill="#243245"/>
<path fill-rule="evenodd" clip-rule="evenodd" d="M18.5078 41.1171C18.6431 41.4945 18.7099 41.8987 18.7099 42.33C18.7099 42.7881 18.6431 43.1923 18.5078 43.5426C18.3461 43.8929 18.1313 44.1896 17.8616 44.4321C17.6194 44.6477 17.3095 44.8226 16.9311 44.9577C16.5545 45.0922 16.1495 45.1597 15.7181 45.1597C15.2876 45.1597 14.8836 45.0922 14.5061 44.9577C14.156 44.8498 13.8589 44.6745 13.6167 44.4321V44.4724C13.3744 44.688 13.1048 44.8498 12.8086 44.9577C12.4851 45.0922 12.1203 45.1597 11.7172 45.1597H6.17853C5.7747 45.1597 5.42443 45.0922 5.12735 44.9577C4.80387 44.8498 4.53467 44.688 4.31932 44.4724V44.4321C4.07654 44.6745 3.78057 44.8498 3.42993 44.9577C3.05251 45.0922 2.64868 45.1597 2.21733 45.1597C1.75883 45.1597 1.355 45.0922 1.00473 44.9577C0.627034 44.8226 0.303177 44.6477 0.0338921 44.4321C-0.208153 44.1896 -0.41025 43.8929 -0.57204 43.5426C-0.707322 43.1923 -0.774414 42.7881 -0.774414 42.33C-0.774414 41.8987 -0.707322 41.5081 -0.57204 41.1574C-0.41025 40.8071 -0.208153 40.5108 0.0338921 40.2684C0.303177 40.0256 0.627034 39.8371 1.00473 39.7024C1.355 39.5675 1.75883 39.5003 2.21733 39.5003H5.16803V42.7342C5.16803 43.0845 5.26264 43.3541 5.45121 43.5426C5.63969 43.7582 5.89535 43.8661 6.21884 43.8661H6.5831C6.52881 43.7582 6.47524 43.6504 6.42094 43.5426C6.28676 43.1923 6.21884 42.7881 6.21884 42.33C6.21884 41.8719 6.28676 41.4674 6.42094 41.1171C6.55631 40.794 6.75769 40.5108 7.02798 40.2684C7.29717 40.0256 7.62029 39.8371 7.99771 39.7024C8.34834 39.5675 8.75181 39.5003 9.21068 39.5003C9.64203 39.5003 10.0326 39.5675 10.3829 39.7024C10.4907 39.7292 10.5982 39.7696 10.7064 39.8235V41.8044H9.21068V40.794C8.9679 40.794 8.7658 40.8343 8.60401 40.915C8.41553 40.9961 8.25374 41.1039 8.1191 41.2385C7.98418 41.3464 7.89031 41.4945 7.83601 41.683C7.7553 41.8719 7.71462 42.0872 7.71462 42.33C7.71462 42.5457 7.7553 42.7478 7.83601 42.9363C7.89031 43.1249 7.98418 43.2866 8.1191 43.4216C8.25374 43.5562 8.41553 43.664 8.60401 43.7447C8.7658 43.8258 8.9679 43.8661 9.21068 43.8661H11.7172C12.0399 43.8661 12.2821 43.7582 12.4448 43.5426C12.6331 43.3541 12.7273 43.0845 12.7273 42.7342V42.33C12.7273 41.8987 12.8086 41.5081 12.9704 41.1574C13.1048 40.8071 13.3068 40.5108 13.5765 40.2684C13.8452 40.0256 14.156 39.8371 14.5061 39.7024C14.8836 39.5675 15.2876 39.5003 15.7181 39.5003C16.1495 39.5003 16.5545 39.5675 16.9311 39.7024C17.3095 39.8371 17.6194 40.0256 17.8616 40.2684C18.1313 40.5108 18.3461 40.794 18.5078 41.1171ZM3.67198 40.794H2.21733C2.00133 40.794 1.79923 40.8343 1.61066 40.915C1.42218 40.9961 1.26039 41.1039 1.12511 41.2385C1.01762 41.3731 0.923739 41.5348 0.842661 41.7234C0.761949 41.9123 0.721641 42.1144 0.721641 42.33C0.721641 42.5457 0.761949 42.7478 0.842661 42.9363C0.923739 43.1249 1.03114 43.2866 1.16578 43.4216C1.27401 43.5562 1.42218 43.664 1.61066 43.7447C1.79923 43.8258 2.00133 43.8661 2.21733 43.8661C2.43259 43.8661 2.63469 43.8258 2.82327 43.7447C2.98496 43.664 3.13322 43.5562 3.26814 43.4216C3.40278 43.2866 3.49739 43.1249 3.55059 42.9363C3.63166 42.7478 3.67198 42.5457 3.67198 42.33V40.794ZM17.1742 42.2893C17.1742 42.074 17.1477 41.8719 17.0929 41.683C17.0124 41.4945 16.9046 41.3327 16.7702 41.1982C16.6614 41.0632 16.5143 40.9689 16.325 40.915C16.1367 40.8343 15.9347 40.794 15.7181 40.794C15.5033 40.794 15.3013 40.8343 15.1121 40.915C14.9512 40.9689 14.8022 41.0768 14.6678 41.2385C14.5335 41.3731 14.4247 41.5213 14.3452 41.683C14.2903 41.8719 14.2638 42.074 14.2638 42.2893C14.2638 42.5321 14.2903 42.7478 14.3452 42.9363C14.4247 43.1249 14.5335 43.2866 14.6678 43.4216C14.8022 43.5562 14.9512 43.6504 15.1121 43.7044C15.3013 43.785 15.5033 43.8258 15.7181 43.8258C15.9347 43.8258 16.1367 43.785 16.325 43.7044C16.5143 43.6504 16.6614 43.5562 16.7702 43.4216C16.9046 43.2866 17.0124 43.1249 17.0929 42.9363C17.1477 42.7478 17.1742 42.5321 17.1742 42.2893Z" fill="#243245"/>
<path d="M23.6022 46.5343C23.6022 46.75 23.5346 46.9118 23.3993 47.0196C23.2375 47.1542 23.0629 47.2217 22.8736 47.2217C22.6588 47.2217 22.4833 47.1542 22.3489 47.0196C22.2136 46.9118 22.146 46.75 22.146 46.5343C22.146 46.3458 22.2136 46.1976 22.3489 46.0897C22.5107 45.9548 22.6853 45.8876 22.8736 45.8876C23.0629 45.8876 23.2375 45.9548 23.3993 46.0897C23.5346 46.1976 23.6022 46.3458 23.6022 46.5343Z" fill="#243245"/>
<path d="M26.229 41.1169C26.3634 41.4671 26.4319 41.8713 26.4319 42.3297C26.4319 42.7879 26.3634 43.1921 26.229 43.5423C26.0681 43.8926 25.8652 44.1893 25.623 44.4318C25.3534 44.6475 25.0435 44.8224 24.6934 44.9574C24.3159 45.092 23.9119 45.1594 23.4804 45.1594H21.9439C21.5399 45.1594 21.1761 45.092 20.8525 44.9574C20.5563 44.8496 20.3004 44.6878 20.0847 44.4721C19.8689 44.2297 19.7081 43.9601 19.5993 43.6637C19.4914 43.367 19.4375 43.0439 19.4375 42.6933V38.2065H20.9338V42.7339C20.9338 43.0842 21.028 43.3539 21.2172 43.5423C21.379 43.758 21.6212 43.8658 21.9439 43.8658H23.4804C23.6961 43.8658 23.8853 43.8255 24.0471 43.7444C24.2354 43.6637 24.3972 43.556 24.5316 43.421C24.666 43.2863 24.7601 43.1246 24.814 42.936C24.8954 42.7476 24.9356 42.5451 24.9356 42.3297C24.9356 42.087 24.8954 41.8717 24.814 41.6828C24.7601 41.4943 24.666 41.3461 24.5316 41.2383C24.3972 41.1032 24.2354 40.9955 24.0471 40.9148C23.8853 40.8341 23.6961 40.7934 23.4804 40.7934V41.8042H21.9439V39.8233C22.4027 39.6076 22.9146 39.5001 23.4804 39.5001C23.9119 39.5001 24.3159 39.5672 24.6934 39.7022C25.0435 39.8368 25.3534 40.0254 25.623 40.2678C25.8652 40.5106 26.0681 40.7934 26.229 41.1169Z" fill="#243245"/>
<path d="M36.9421 46.5343C36.9686 46.75 36.9019 46.9118 36.7401 47.0196C36.5783 47.1542 36.4037 47.2217 36.2145 47.2217C35.9987 47.2217 35.8232 47.1542 35.6888 47.0196C35.5536 46.9118 35.4868 46.75 35.4868 46.5343C35.4868 46.3458 35.5536 46.1976 35.6888 46.0897C35.8507 45.9548 36.0253 45.8876 36.2145 45.8876C36.4037 45.8876 36.5783 45.9548 36.7401 46.0897C36.8754 46.1976 36.9421 46.3458 36.9421 46.5343Z" fill="#243245"/>
<path fill-rule="evenodd" clip-rule="evenodd" d="M58.4472 42.33C58.4472 42.7881 58.3805 43.1923 58.2452 43.5426C58.1108 43.8929 57.9088 44.1896 57.6392 44.4321C57.3695 44.6477 57.0469 44.8226 56.6694 44.9577C56.3184 45.0922 55.9271 45.1597 55.4975 45.1597C55.0387 45.1597 54.6346 45.0922 54.2846 44.9577C53.9336 44.8498 53.6237 44.6745 53.354 44.4321V44.4724C53.1392 44.688 52.8696 44.8498 52.546 44.9577C52.2498 45.0922 51.8851 45.1597 51.4546 45.1597C51.0497 45.1597 50.6996 45.0922 50.4034 44.9577C50.1338 44.8498 49.9044 44.7148 49.7161 44.5535C49.5003 44.7419 49.2581 44.8901 48.9885 44.998C48.6914 45.1058 48.3413 45.1597 47.9373 45.1597C47.5333 45.1597 47.1685 45.1058 46.8459 44.998C46.5771 44.8901 46.334 44.7556 46.1183 44.5938C45.9291 44.7556 45.7006 44.8901 45.4309 44.998C45.1073 45.1058 44.7572 45.1597 44.3806 45.1597C43.9757 45.1597 43.6119 45.1058 43.2883 44.998C43.0187 44.8901 42.7764 44.7419 42.5607 44.5535C42.3724 44.7148 42.143 44.8498 41.8733 44.9577C41.6046 45.0654 41.281 45.1326 40.9035 45.1597H40.7829C40.3779 45.1597 40.0279 45.0922 39.7308 44.9577C39.4081 44.8498 39.1385 44.688 38.9227 44.4724V44.4321C38.6796 44.6745 38.3834 44.8498 38.0333 44.9577C37.6558 45.0922 37.2518 45.1597 36.8204 45.1597H35.2838C34.8798 45.1597 34.5169 45.0922 34.1934 44.9577C33.8963 44.8498 33.6403 44.688 33.4246 44.4724V44.4321C33.1559 44.6745 32.8451 44.8498 32.495 44.9577C32.1449 45.0922 31.7409 45.1597 31.282 45.1597H29.3013V43.8661H31.282C31.4978 43.8661 31.7007 43.8258 31.889 43.7447C32.0773 43.664 32.2391 43.5562 32.3744 43.4216C32.4813 43.3137 32.5755 43.1655 32.6568 42.9767C32.7107 42.7881 32.7372 42.5725 32.7372 42.33C32.7372 42.1144 32.7107 41.9123 32.6568 41.7234C32.5755 41.5348 32.4813 41.3731 32.3744 41.2385C32.2391 41.1039 32.0773 40.9961 31.889 40.915C31.7007 40.8343 31.4978 40.794 31.282 40.794H30.2711V39.5003H31.282C31.7409 39.5003 32.1449 39.5675 32.495 39.7024C32.8725 39.8371 33.1824 40.0124 33.4246 40.2276C33.6943 40.4705 33.91 40.7668 34.0718 41.1171C34.2062 41.4674 34.2738 41.8719 34.2738 42.33V42.7342C34.2738 43.0845 34.3679 43.3541 34.5572 43.5426C34.7189 43.7582 34.9603 43.8661 35.2838 43.8661H36.8204C37.0361 43.8661 37.2253 43.8258 37.3862 43.7447C37.5754 43.664 37.7363 43.5562 37.8716 43.4216C38.0069 43.2866 38.101 43.1249 38.1549 42.9363C38.2354 42.7478 38.2756 42.5457 38.2756 42.33C38.2756 42.0872 38.2354 41.8719 38.1549 41.683C38.101 41.4945 38.0069 41.3464 37.8716 41.2385C37.7363 41.1039 37.5754 40.9961 37.3862 40.915C37.2253 40.8343 37.0361 40.794 36.8204 40.794V41.8044H35.2838V39.8235C35.3917 39.7696 35.5005 39.7292 35.6083 39.7024C35.9584 39.5675 36.3624 39.5003 36.8204 39.5003C37.2518 39.5003 37.6558 39.5675 38.0333 39.7024C38.3834 39.8371 38.6933 40.0124 38.963 40.2276C39.2061 40.4973 39.4081 40.794 39.5699 41.1171C39.7043 41.4674 39.771 41.8719 39.771 42.33V42.7342C39.771 43.0845 39.8661 43.3541 40.0544 43.5426C40.2426 43.7582 40.4995 43.8661 40.8231 43.8661C41.1192 43.8661 41.3615 43.7582 41.5507 43.5426C41.739 43.3541 41.8331 43.0845 41.8331 42.7342V39.5003H43.9757V40.8343H43.3295V42.6532C43.3295 43.0577 43.4236 43.3541 43.6119 43.5426C43.8002 43.7582 44.0571 43.8661 44.3806 43.8661C44.6759 43.8661 44.919 43.7582 45.1073 43.5426C45.2965 43.3541 45.3907 43.0577 45.3907 42.6532V39.5003H47.5333V40.8343H46.8861V42.6532C46.8861 43.0577 46.9802 43.3541 47.1685 43.5426C47.3578 43.7582 47.6137 43.8661 47.9373 43.8661C48.2334 43.8661 48.4766 43.7582 48.6649 43.5426C48.8532 43.3541 48.9482 43.0577 48.9482 42.6532V39.5003H51.0908V40.8343H50.4436V42.7342C50.4436 43.0845 50.5378 43.3541 50.7261 43.5426C50.9153 43.7582 51.1575 43.8661 51.4546 43.8661H51.4948C51.791 43.8389 52.0341 43.7314 52.2224 43.5426C52.4107 43.3541 52.5058 43.0845 52.5058 42.7342V42.33C52.5058 41.8987 52.5725 41.5081 52.7078 41.1574C52.8422 40.8071 53.0442 40.5108 53.3138 40.2684C53.5826 40.0256 53.9061 39.8371 54.2846 39.7024C54.6346 39.5675 55.0387 39.5003 55.4975 39.5003C55.9271 39.5003 56.3184 39.5675 56.6694 39.7024C57.0469 39.8371 57.3695 40.0256 57.6392 40.2684C57.9088 40.5108 58.1108 40.794 58.2452 41.1171C58.3805 41.4945 58.4472 41.8987 58.4472 42.33ZM56.9518 42.33C56.9518 42.0872 56.9116 41.8719 56.8302 41.683C56.7772 41.4945 56.6822 41.3464 56.5478 41.2385C56.4134 41.1039 56.2653 40.9961 56.1036 40.915C55.9143 40.8343 55.7123 40.794 55.4975 40.794C55.2809 40.794 55.0789 40.8343 54.8906 40.915C54.7014 40.9961 54.5396 41.1039 54.4052 41.2385C54.2974 41.3731 54.2032 41.5348 54.1228 41.7234C54.0414 41.9123 54.0012 42.1144 54.0012 42.33C54.0012 42.5457 54.0414 42.7478 54.1228 42.9363C54.2032 43.1249 54.2974 43.2866 54.4052 43.4216C54.5396 43.5562 54.7014 43.664 54.8906 43.7447C55.0789 43.8258 55.2809 43.8661 55.4975 43.8661C55.7123 43.8661 55.9143 43.8258 56.1036 43.7447C56.2653 43.664 56.4134 43.5562 56.5478 43.4216C56.6822 43.2866 56.7772 43.1249 56.8302 42.9363C56.9116 42.7478 56.9518 42.5457 56.9518 42.33Z" fill="#243245"/>
<path d="M10.6652 52.2337H12.7272V56.1552C12.7272 56.5055 12.6604 56.8291 12.5252 57.1254C12.4173 57.4214 12.2555 57.6778 12.0398 57.893C11.825 58.109 11.5681 58.2837 11.2719 58.419C10.9484 58.5265 10.5852 58.5943 10.1807 58.6211V57.2871C10.5042 57.3139 10.7463 57.22 10.908 57.004C11.0966 56.8154 11.1912 56.5459 11.1912 56.1956V53.2849H10.6652V52.2337Z" fill="#243245"/>
<path d="M14.8295 55.2665H15.3953V56.5601H13.4146V49.6068H14.8295V55.2665Z" fill="#243245"/>
<path fill-rule="evenodd" clip-rule="evenodd" d="M21.8636 52.5166C21.9989 52.8669 22.0656 53.2715 22.0656 53.7295V56.155C22.0656 56.5053 22.0117 56.8288 21.9038 57.1252C21.7959 57.4219 21.6341 57.6776 21.4193 57.8936C21.2027 58.1088 20.934 58.2841 20.6104 58.4188C20.2868 58.5263 19.923 58.5806 19.519 58.5806V57.2869C19.8426 57.2869 20.0976 57.1791 20.2868 56.963C20.4486 56.8013 20.529 56.5725 20.529 56.2765C20.0976 56.465 19.6131 56.5596 19.0738 56.5596C18.6433 56.5596 18.2384 56.4914 17.8609 56.3571C17.5108 56.2222 17.2009 56.0472 16.9313 55.8315C16.6616 55.5887 16.4596 55.2924 16.3252 54.9421C16.1634 54.5918 16.083 54.1873 16.083 53.7295C16.083 53.2983 16.1634 52.9076 16.3252 52.5573C16.4596 52.2067 16.6616 51.91 16.9313 51.6679C17.2009 51.4254 17.5108 51.2369 17.8609 51.1019C18.2384 50.967 18.6433 50.8998 19.0738 50.8998C19.5327 50.8998 19.9358 50.967 20.2868 51.1019C20.6643 51.2369 20.9742 51.4254 21.2173 51.6679C21.4861 51.91 21.7018 52.1932 21.8636 52.5166ZM20.529 53.7295C20.529 53.4867 20.5025 53.2715 20.4486 53.0822C20.3672 52.9212 20.274 52.7723 20.1662 52.638C20.0309 52.503 19.8691 52.3953 19.6808 52.3145C19.4916 52.261 19.2896 52.2335 19.0738 52.2335C18.859 52.2335 18.6561 52.261 18.4678 52.3145C18.306 52.3953 18.158 52.503 18.0227 52.638C17.8883 52.7723 17.7941 52.9344 17.7402 53.1236C17.6598 53.3122 17.6196 53.5143 17.6196 53.7295C17.6196 53.9456 17.6598 54.147 17.7402 54.3362C17.7941 54.5248 17.8883 54.6865 18.0227 54.8207C18.158 54.956 18.3197 55.0635 18.508 55.1446C18.6698 55.2253 18.859 55.266 19.0738 55.266C19.2896 55.266 19.4916 55.2253 19.6808 55.1446C19.8691 55.0635 20.0309 54.956 20.1662 54.8207C20.274 54.6865 20.3672 54.5248 20.4486 54.3362C20.5025 54.147 20.529 53.9456 20.529 53.7295Z" fill="#243245"/>
<path d="M23.9658 51.3848C23.804 51.2773 23.7227 51.1156 23.7227 50.8998C23.7227 50.711 23.804 50.5492 23.9658 50.4146C24.1002 50.3068 24.2757 50.2528 24.4914 50.2528C24.6798 50.2528 24.8553 50.3203 25.0171 50.4549C25.1515 50.5628 25.2182 50.711 25.2182 50.8998C25.2182 51.1156 25.1377 51.2773 24.9759 51.3848C24.8416 51.4927 24.6798 51.5469 24.4914 51.5469C24.2757 51.5469 24.1002 51.4927 23.9658 51.3848Z" fill="#243245"/>
<path d="M27.3213 49.6065H28.857V54.0936C28.857 54.4439 28.803 54.767 28.6952 55.0637C28.5882 55.3872 28.4264 55.6568 28.2098 55.8721C27.995 56.0881 27.7253 56.2499 27.4018 56.3573C27.0782 56.4916 26.7144 56.5598 26.3104 56.5598C25.9329 56.5598 25.5965 56.5055 25.2994 56.3977C25.2729 56.6673 25.219 56.9101 25.1376 57.1254C25.0298 57.4221 24.8689 57.6778 24.6522 57.8938C24.4374 58.109 24.1678 58.2844 23.8442 58.419C23.5481 58.5265 23.197 58.5943 22.7939 58.6211V57.2871C23.0892 57.3139 23.3323 57.22 23.5206 57.004C23.7098 56.8154 23.804 56.5459 23.804 56.1956V53.2849H23.2784V52.2337H25.2994V54.1343C25.2994 54.4846 25.3936 54.7678 25.5819 54.983C25.7711 55.1716 26.0133 55.2662 26.3104 55.2662C26.633 55.2662 26.8899 55.1716 27.0782 54.983C27.24 54.7678 27.3213 54.4846 27.3213 54.1343V49.6065Z" fill="#243245"/>
<path d="M30.9994 55.2665H31.525V56.5601H29.5845V49.6068H30.9994V55.2665Z" fill="#243245"/>
<path d="M38.9628 50.8998H41.1054V52.2335H40.4994V54.053C40.4994 54.4568 40.4317 54.8071 40.2964 55.1038C40.1895 55.4277 40.0277 55.697 39.812 55.9122C39.5963 56.1282 39.3266 56.29 39.003 56.3975C38.7069 56.5053 38.3568 56.5596 37.9518 56.5596H36.9016C36.0935 56.5596 35.4729 56.3436 35.0424 55.9122C34.5835 55.4809 34.355 54.8614 34.355 54.053V52.2335H35.8906V54.053C35.8906 54.4844 35.9857 54.7943 36.174 54.9828C36.3623 55.1714 36.6054 55.266 36.9016 55.266H37.9518C38.2489 55.266 38.4911 55.1714 38.6804 54.9828C38.8687 54.7943 38.9628 54.4844 38.9628 54.053V50.8998Z" fill="#243245"/>
<path d="M38.155 57.9327C38.155 58.1487 38.0873 58.3104 37.952 58.4183C37.7911 58.5258 37.6156 58.5801 37.4273 58.5801C37.2116 58.5801 37.036 58.5258 36.9017 58.4183C36.7664 58.3104 36.6987 58.1487 36.6987 57.9327C36.6987 57.7441 36.7664 57.5824 36.9017 57.4481C37.0635 57.3402 37.2381 57.2863 37.4273 57.2863C37.6156 57.2863 37.7911 57.3535 37.952 57.4884C38.0873 57.5963 38.155 57.7441 38.155 57.9327Z" fill="#243245"/>
<path d="M47.4929 51.5473V52.8813H46.886V54.0535C46.886 54.8619 46.6565 55.4814 46.1986 55.9127C45.7672 56.2905 45.2023 56.4919 44.5012 56.5194C44.4472 56.5462 44.3933 56.5601 44.3394 56.5601C43.9354 56.5601 43.5706 56.4919 43.248 56.3576C42.9518 56.2502 42.6959 56.0884 42.4802 55.8724C42.2644 55.6571 42.1027 55.3875 41.9948 55.064C41.8869 54.7673 41.833 54.4442 41.833 54.0939V49.6068H43.3293V54.1346C43.3293 54.4849 43.4235 54.768 43.6118 54.9833C43.7736 55.1719 44.0158 55.2665 44.3394 55.2665V55.2258C44.6355 55.2258 44.8787 55.1311 45.067 54.9426C45.2553 54.754 45.3503 54.4573 45.3503 54.0535V51.5473H47.4929Z" fill="#243245"/>
<path d="M45.1073 57.9334C45.1073 58.1494 45.0269 58.3111 44.8651 58.419C44.7307 58.554 44.5552 58.6211 44.3395 58.6211C44.1512 58.6211 43.9894 58.554 43.8541 58.419C43.6923 58.3111 43.6118 58.1494 43.6118 57.9334C43.6118 57.7448 43.6923 57.597 43.8541 57.4891C43.9894 57.3816 44.1512 57.3274 44.3395 57.3274C44.5552 57.3274 44.7307 57.3816 44.8651 57.4891C45.0269 57.597 45.1073 57.7448 45.1073 57.9334Z" fill="#243245"/>
</g>
<defs>
<clipPath id="clip0_731_3899">
<rect width="58.9445" height="58.9445" fill="white"/>
</clipPath>
</defs>
</svg>
